<svg width="21" height="284" viewBox="0 0 21 284" fill="none" xmlns="http://www.w3.org/2000/svg">
<line x1="13.5" y1="2.18557e-08" x2="13.5" y2="169" stroke="white" stroke-opacity="0.7"/>
<path d="M14.583 276.934C14.0615 276.934 13.6426 277.145 13.3262 277.566C13.0098 277.982 12.7637 278.612 12.5879 279.456C12.4062 280.3 12.2012 280.956 11.9727 281.425C11.7383 281.888 11.4541 282.233 11.1201 282.462C10.7861 282.685 10.3818 282.796 9.90723 282.796C9.15723 282.796 8.53906 282.482 8.05273 281.855C7.56055 281.229 7.31445 280.426 7.31445 279.447C7.31445 278.387 7.57812 277.537 8.10547 276.898C8.62695 276.254 9.30957 275.932 10.1533 275.932V276.986C9.59668 276.986 9.13379 277.221 8.76465 277.689C8.39551 278.152 8.21094 278.738 8.21094 279.447C8.21094 280.139 8.36621 280.695 8.67676 281.117C8.98145 281.533 9.37988 281.741 9.87207 281.741C10.3467 281.741 10.7158 281.568 10.9795 281.223C11.2373 280.871 11.4746 280.235 11.6914 279.315C11.9082 278.39 12.1396 277.698 12.3857 277.241C12.6318 276.778 12.9277 276.436 13.2734 276.213C13.6191 275.99 14.0381 275.879 14.5303 275.879C15.333 275.879 15.9746 276.204 16.4551 276.854C16.9355 277.499 17.1758 278.343 17.1758 279.386C17.1758 280.493 16.9092 281.393 16.376 282.084C15.8369 282.77 15.1572 283.112 14.3369 283.112V282.058C14.9521 282.017 15.4326 281.759 15.7783 281.284C16.1182 280.804 16.2881 280.171 16.2881 279.386C16.2881 278.653 16.127 278.062 15.8047 277.61C15.4824 277.159 15.0752 276.934 14.583 276.934ZM8.38672 267.491C8.3457 267.714 8.3252 267.951 8.3252 268.203C8.3252 268.859 8.50977 269.416 8.87891 269.873C9.24219 270.324 9.77246 270.647 10.4697 270.84H17V271.886H7.49023V270.858L9.00195 270.84C7.87695 270.283 7.31445 269.39 7.31445 268.159C7.31445 267.866 7.35254 267.635 7.42871 267.465L8.38672 267.491ZM16.2881 260.862C16.2881 260.129 16.083 259.517 15.6729 259.025C15.2568 258.527 14.7207 258.257 14.0645 258.216V257.205C14.6445 257.235 15.1748 257.416 15.6553 257.75C16.1299 258.084 16.502 258.53 16.7715 259.086C17.041 259.637 17.1758 260.229 17.1758 260.862C17.1758 262.11 16.7422 263.1 15.875 263.832C15.0078 264.559 13.8418 264.922 12.377 264.922H12.0605C11.123 264.922 10.2939 264.758 9.57324 264.43C8.85254 264.102 8.2959 263.633 7.90332 263.024C7.51074 262.408 7.31445 261.691 7.31445 260.87C7.31445 259.827 7.625 258.969 8.24609 258.295C8.86719 257.615 9.68457 257.252 10.6982 257.205V258.216C9.9541 258.263 9.35352 258.532 8.89648 259.025C8.43945 259.511 8.21094 260.126 8.21094 260.87C8.21094 261.82 8.55371 262.558 9.23926 263.085C9.9248 263.607 10.8857 263.867 12.1221 263.867H12.4297C13.6426 263.867 14.5889 263.607 15.2686 263.085C15.9482 262.558 16.2881 261.817 16.2881 260.862ZM12.1045 254.056C11.1904 254.056 10.3672 253.88 9.63477 253.529C8.90234 253.171 8.33398 252.67 7.92969 252.026C7.51953 251.375 7.31445 250.64 7.31445 249.82C7.31445 248.554 7.75977 247.529 8.65039 246.744C9.53516 245.958 10.71 245.566 12.1748 245.566H12.3945C13.3145 245.566 14.1436 245.744 14.8818 246.102C15.6143 246.453 16.1797 246.952 16.5781 247.596C16.9766 248.241 17.1758 248.976 17.1758 249.802C17.1758 251.062 16.7334 252.087 15.8486 252.878C14.958 253.663 13.7803 254.056 12.3154 254.056H12.1045ZM12.3945 253.001C13.5313 253.001 14.4658 252.708 15.1982 252.122C15.9248 251.531 16.2881 250.757 16.2881 249.802C16.2881 248.853 15.9248 248.085 15.1982 247.499C14.4658 246.908 13.502 246.612 12.3066 246.612H12.1045C11.3779 246.612 10.7129 246.746 10.1094 247.016C9.50586 247.286 9.04004 247.663 8.71191 248.15C8.37793 248.636 8.21094 249.193 8.21094 249.82C8.21094 250.757 8.58008 251.522 9.31836 252.114C10.0508 252.705 11.0117 253.001 12.2012 253.001H12.3945ZM17 240.588V241.643H3.5V240.588H17ZM17 234.925V235.98H3.5V234.925H17ZM12.1572 224.865C10.6807 224.865 9.50586 224.537 8.63281 223.881C7.75391 223.219 7.31445 222.322 7.31445 221.191C7.31445 219.908 7.82129 218.93 8.83496 218.256H3.5L3.5 217.21H17V218.194L15.7344 218.238C16.6953 218.912 17.1758 219.902 17.1758 221.209C17.1758 222.305 16.7363 223.189 15.8574 223.863C14.9727 224.531 13.7803 224.865 12.2803 224.865H12.1572ZM12.3418 223.802C13.5547 223.802 14.5127 223.558 15.2158 223.072C15.9131 222.586 16.2617 221.9 16.2617 221.015C16.2617 219.721 15.6904 218.801 14.5479 218.256H10.083C8.84668 218.801 8.22852 219.715 8.22852 220.998C8.22852 221.883 8.57715 222.571 9.27441 223.063C9.96582 223.556 10.9883 223.802 12.3418 223.802ZM12.1045 213.401C11.1904 213.401 10.3672 213.226 9.63477 212.874C8.90234 212.517 8.33398 212.016 7.92969 211.371C7.51953 210.721 7.31445 209.985 7.31445 209.165C7.31445 207.899 7.75977 206.874 8.65039 206.089C9.53516 205.304 10.71 204.911 12.1748 204.911H12.3945C13.3145 204.911 14.1436 205.09 14.8818 205.447C15.6143 205.799 16.1797 206.297 16.5781 206.941C16.9766 207.586 17.1758 208.321 17.1758 209.147C17.1758 210.407 16.7334 211.433 15.8486 212.224C14.958 213.009 13.7803 213.401 12.3154 213.401H12.1045ZM12.3945 212.347C13.5313 212.347 14.4658 212.054 15.1982 211.468C15.9248 210.876 16.2881 210.103 16.2881 209.147C16.2881 208.198 15.9248 207.431 15.1982 206.845C14.4658 206.253 13.502 205.957 12.3066 205.957H12.1045C11.3779 205.957 10.7129 206.092 10.1094 206.361C9.50586 206.631 9.04004 207.009 8.71191 207.495C8.37793 207.981 8.21094 208.538 8.21094 209.165C8.21094 210.103 8.58008 210.867 9.31836 211.459C10.0508 212.051 11.0117 212.347 12.2012 212.347H12.3945ZM14.8115 198.835L15.6289 198.677L14.7676 198.466L7.49023 196.181V195.284L14.7061 193.025L15.708 192.779L14.7852 192.577L7.49023 190.626V189.536L17 192.305V193.201L9.45898 195.645L8.94043 195.759L9.46777 195.873L17 198.273V199.169L7.49023 201.929V200.848L14.8115 198.835ZM7.49023 184.919L9.11621 184.884C8.53027 184.527 8.08496 184.081 7.78027 183.548C7.46973 183.015 7.31445 182.426 7.31445 181.781C7.31445 180.762 7.60156 180.003 8.17578 179.505C8.75 179.007 9.61133 178.755 10.7598 178.749H17V179.795H10.751C9.90137 179.801 9.26855 179.983 8.85254 180.34C8.43652 180.692 8.22852 181.257 8.22852 182.036C8.22852 182.687 8.43359 183.264 8.84375 183.768C9.24805 184.266 9.7959 184.635 10.4873 184.875H17V185.921H7.49023V184.919Z" fill="white" fill-opacity="0.8"/>
<rect x="10" width="7" height="62" fill="white" fill-opacity="0.8"/>
</svg>
